<svg id="Layer_1" data-name="Layer 1" xmlns="http://www.w3.org/2000/svg" viewBox="0 0 119 155"><defs><style>.cls-1{fill:#3c54a4;}.cls-2{fill:#231f20;}.cls-3{fill:#8a5d3b;}.cls-4{fill:#f28ab8;}.cls-5{fill:#ffdd15;}.cls-5,.cls-6{stroke:#231f20;stroke-miterlimit:10;stroke-width:0.5px;}.cls-6{fill:#faaf40;}.cls-7{fill:#f392a8;}</style></defs><path class="cls-1" d="M88.71,96.1c2.81.43,13.43,2,17.55,1.56.71-.07,2.27-.24,2.6-1.12.26-.68-.36-1.5-.57-1.79-1.38-1.84-5.22-7.57-10.53-15.54"/><path class="cls-2" d="M88.38,97.31A111.09,111.09,0,0,0,104.54,99c2.37,0,7-.58,5.29-4.11a17.91,17.91,0,0,0-1.54-2.25l-2.06-3c-2.48-3.66-4.94-7.35-7.39-11-.89-1.33-3.06-.08-2.16,1.26,3.31,5,6.56,10,10,14.84l.51.71c.37.52.69.64.05.84a9.59,9.59,0,0,1-2.93.25,79.11,79.11,0,0,1-8-.61c-2.44-.28-4.87-.61-7.3-1-1.57-.24-2.25,2.17-.66,2.41Z"/><path class="cls-1" d="M106.69,90.06A68.35,68.35,0,0,0,117,85.26l-14.24-8.42"/><path class="cls-2" d="M107,91.26a71.61,71.61,0,0,0,10.63-4.92,1.26,1.26,0,0,0,0-2.16l-14.24-8.42a1.25,1.25,0,0,0-1.26,2.16l14.24,8.42V84.18a68.79,68.79,0,0,1-10,4.67,1.29,1.29,0,0,0-.87,1.54,1.26,1.26,0,0,0,1.54.87Z"/><path class="cls-1" d="M97.42,61.53c2.21.61,14.39,4,15.71,5.06a1.07,1.07,0,0,1,.49.74c0,.65-1,1.17-1.18,1.3-1.39.78-6.82,4.92-14.67,11.06"/><path class="cls-2" d="M97.09,62.73c4.21,1.18,8.43,2.36,12.57,3.77.45.16.9.31,1.35.48l.62.24a2.36,2.36,0,0,1,.31.13l.37.19c.2.12.11,0,0,0l.12.12q.11-.75-.15-.45a2.28,2.28,0,0,0-.3.21c-.12.08-.25.14-.38.22-1.63,1-3.13,2.21-4.65,3.35-3.39,2.57-6.75,5.19-10.1,7.81a1.26,1.26,0,0,0,0,1.77,1.29,1.29,0,0,0,1.77,0c3.18-2.49,6.37-5,9.59-7.42,1.59-1.19,3.16-2.45,4.86-3.48,1.44-.85,2.5-2.49,1-3.9A6.33,6.33,0,0,0,112,64.69c-2.37-.91-4.82-1.63-7.25-2.35s-4.66-1.37-7-2a1.25,1.25,0,0,0-.67,2.41Z"/><path class="cls-1" d="M90.47,45c7.55-.81,13-1.4,14.41-1.6a1.85,1.85,0,0,1,1.3.25,1.33,1.33,0,0,1,.36,1.5,3.09,3.09,0,0,1-1,1.35c-1.09.84-4.36,4.36-9.36,10"/><path class="cls-2" d="M90.47,46.26c4.53-.49,9.07-.94,13.59-1.49l.79-.1c.13,0,.45,0,.15,0,.17,0,.47.08.37-.08.23.38-.68,1.06-1,1.32a41.86,41.86,0,0,0-3,3c-2.06,2.21-4.07,4.47-6.08,6.73-1.06,1.2.7,3,1.77,1.76,2-2.21,3.93-4.41,5.94-6.57a39.17,39.17,0,0,1,3.27-3.3,4,4,0,0,0,1.54-2.76,2.53,2.53,0,0,0-2.72-2.61,5.78,5.78,0,0,0-.7.08c.11,0,.22,0,0,0l-1,.12-2.81.31-10.13,1.1A1.28,1.28,0,0,0,89.22,45a1.26,1.26,0,0,0,1.25,1.25Z"/><path class="cls-3" d="M89.51,47.48C90.68,44.53,98,26,97,17.16c-.13-1.3-.41-4.17-2.5-5.59-1.67-1.13-3.89-.9-5.87-.52-5.94,1.15-11.08,2.22-16.14,6.88a26.71,26.71,0,0,0-8.11,15"/><path class="cls-2" d="M90.72,47.81c1.41-3.57,2.72-7.18,3.89-10.84A73.5,73.5,0,0,0,98.26,21a18.44,18.44,0,0,0-.45-6.66A6.49,6.49,0,0,0,90.89,9.5,39.35,39.35,0,0,0,81,11.6a25.68,25.68,0,0,0-8.84,5A27.81,27.81,0,0,0,63.2,32.55c-.28,1.58,2.13,2.25,2.41.67a25.63,25.63,0,0,1,6.11-12.7,22.74,22.74,0,0,1,8.18-5.87,45,45,0,0,1,8.7-2.32,8.54,8.54,0,0,1,4.54-.08,4.24,4.24,0,0,1,2.4,3.34,18.17,18.17,0,0,1,.19,5.84A72.41,72.41,0,0,1,92.29,36c-1.19,3.76-2.53,7.47-4,11.14-.59,1.49,1.83,2.14,2.42.66Z"/><path class="cls-3" d="M18.28,44.61a53.2,53.2,0,0,1-3.6-24.11c.76-8.17,3-9.92,3.78-10.43,5.09-3.38,13.72,2,15.7,3.31C43.07,19,46.64,28.11,48,32.68"/><path class="cls-2" d="M19.48,44.27A55.14,55.14,0,0,1,15.73,25.5a44.43,44.43,0,0,1,.48-7.29,15.54,15.54,0,0,1,1.93-6,3.71,3.71,0,0,1,.82-.94c.11-.1-.17.11.09-.07a5.74,5.74,0,0,1,1.59-.73c2.33-.63,4.9.11,7.09,1a31.07,31.07,0,0,1,11.71,8.06A35.68,35.68,0,0,1,46.81,33c.47,1.53,2.89.88,2.41-.66A39.59,39.59,0,0,0,42.47,19.2,33.32,33.32,0,0,0,29.68,9.53c-3.8-1.66-9.4-3.18-12.77.21a10.61,10.61,0,0,0-2.37,4.48,34.56,34.56,0,0,0-1.26,8.59,56,56,0,0,0,3.79,22.13c.56,1.49,3,.84,2.41-.67Z"/><path class="cls-4" d="M26.49,40A82,82,0,0,1,24,26.36c-.12-1.36,0-3.05,1.22-3.65a3.66,3.66,0,0,1,2.67.19,12,12,0,0,1,5,2.68,7.67,7.67,0,0,1,1.87,5A22.26,22.26,0,0,1,34.19,36"/><path class="cls-4" d="M73.91,35.54a15.4,15.4,0,0,1-1-3.62,5,5,0,0,1,.84-3.6c1.22-1.6,3.45-2,5.47-2.26l6-.79a2.52,2.52,0,0,1,1.31.06,1.67,1.67,0,0,1,.87,1.72,4.63,4.63,0,0,1-.79,1.89,34.08,34.08,0,0,0-3.19,5.79,8.83,8.83,0,0,0-.19,6.45"/><path class="cls-2" d="M98.68,67,103,69.7l.3-2.28-4,1.19,1.54.87a.85.85,0,0,1,0-.17l0,.34a1.34,1.34,0,0,1,0-.4l0,.33a3.18,3.18,0,0,1,.09-.33c-.09.34-.09.19,0,.09a.36.36,0,0,1,.07-.1c-.14.16-.17.21-.11.14l.12-.13c.16-.18-.17.1-.08,0a.75.75,0,0,0,.15-.09l-.16.07.11,0a1.25,1.25,0,1,0-.67-2.41,2.77,2.77,0,0,0-1.87,3.32A1.27,1.27,0,0,0,100,71l4-1.19a1.26,1.26,0,0,0,.3-2.29L100,64.86A1.25,1.25,0,0,0,98.68,67Z"/><path class="cls-2" d="M93.89,91.83a18,18,0,0,0,5.28.46,1.29,1.29,0,0,0,1.21-.92A1.27,1.27,0,0,0,99.81,90l-.19-.1c-.18-.1.19.18,0,0l-.14-.14c-.13-.13.16.24,0,0a3.35,3.35,0,0,1-.21-.36,2.14,2.14,0,0,1-.1-.22c-.09-.18.1.26,0,0a7.72,7.72,0,0,0-.86-1.84A3,3,0,0,0,96.1,86a2.55,2.55,0,0,0-2.28,1.34,4.59,4.59,0,0,0-.29,3.12,1.27,1.27,0,0,0,.57.75,1.23,1.23,0,0,0,1,.12l1.8-.67a1.26,1.26,0,0,0,.89-1,1.28,1.28,0,0,0-.6-1.24c-.2-.15.19.17,0,0L97,88.2c-.18-.18.15.24,0,0L96.92,88a.93.93,0,0,0-.1-.2l.07.16,0-.14c0-.06,0-.12,0-.18-.07-.31,0,.25,0,0a1.25,1.25,0,0,0-2.5,0,3.67,3.67,0,0,0,1.6,2.83l.3-2.29-1.8.67,1.54.88,0-.18c0,.18,0,.2,0,.06a2.45,2.45,0,0,1,0-.27c0-.12,0-.24,0-.36a1.14,1.14,0,0,0,0-.26c0,.18,0,.21,0,.07s0-.11,0-.16l0-.1c0-.09,0,0,0,.13a1.57,1.57,0,0,0,.14-.25c0,.08-.2.22,0,0l.1-.09c-.16.12-.19.14-.08.07s-.27.06,0,0-.21,0,0,0-.3-.09-.07,0l.12,0-.15-.06a2.12,2.12,0,0,0,.2.12c-.16-.13-.19-.16-.09-.07l.08.07c.06,0,.11.12.17.18s-.15-.22,0,0l.15.25a1.14,1.14,0,0,1,.1.19c.16.31-.06-.18,0,0,.15.39.3.78.46,1.16a3.53,3.53,0,0,0,1.54,1.8l.63-2.33a16.56,16.56,0,0,1-2.44,0l-.56,0-.19,0,.1,0-.33,0q-.6-.1-1.2-.24a1.25,1.25,0,0,0-1.53.87,1.27,1.27,0,0,0,.87,1.54Z"/><path class="cls-2" d="M95.77,53.58l2.66-4.8a1.26,1.26,0,0,0-1.07-1.88,15,15,0,0,0-7,1.4,1.26,1.26,0,0,0,0,2.16l1.47,1A1.27,1.27,0,0,0,93.51,51a1.29,1.29,0,0,0-.45-1.71l-1.48-1v2.16l.23-.1.32-.13c.25-.1.51-.19.76-.27a13.51,13.51,0,0,1,1.52-.38l.39-.07.13,0c.27,0,.54-.06.81-.08a12.51,12.51,0,0,1,1.62,0l-1.08-1.88-2.67,4.8a1.25,1.25,0,0,0,2.16,1.26Z"/><path class="cls-3" d="M88,96.74c.46.76,1.12,1.93,1.83,3.38,1.95,4,7.2,16.08,4,29.94a29.09,29.09,0,0,1-11.44,17,29.84,29.84,0,0,1-20,5.27c-1.73-.17-3.61-.58-4.7-1.92a5.51,5.51,0,0,1-1-3.86,11.09,11.09,0,0,1,2.35-6,31.69,31.69,0,0,1,4.54-3.5,11.4,11.4,0,0,0-4.54,3.5A13.08,13.08,0,0,0,57.76,142a7.81,7.81,0,0,0-1.46,7.25c-6,.2-12,.39-17.88-.86a29.82,29.82,0,0,1-7.73-2.75,20.88,20.88,0,0,1-7.32-6.15c-1.11-1.55-2.11-3.36-3.27-4.92l-.31-.41a7.72,7.72,0,0,0-4.6-3.17c-3.28-.61-6.63,2-7.26,5.27s1.11,6.62,3.78,8.58a15.14,15.14,0,0,0,9.48,2.52,43.39,43.39,0,0,0,9.5-1.72l.32-.08-10.91-11-.25-.25-.06-.16a48.9,48.9,0,0,1-3.23-13.38,39.48,39.48,0,0,1,1.12-12.29s.37-1.68,3.13-10.75h0a24.52,24.52,0,0,1-8.48-6.21C4,81.92,5.61,67.21,9.62,57.92,16,43,30.7,38,36.77,35.93c4.14-1.42,19.12-6.31,35.67.67,5.12,2.16,20.3,8.55,25,24.93,5.22,18.27-7.6,33.31-8.71,34.58Z"/><path class="cls-2" d="M87,97.37c5.46,9.11,8,20.46,6,31a28.2,28.2,0,0,1-26.73,22.86c-3.08.1-8.12.27-8.24-3.91A9.42,9.42,0,0,1,59.6,142c1.07-1.67,3.06-2.8,4.68-3.89A1.25,1.25,0,0,0,63,135.92a16.45,16.45,0,0,0-6.45,5.63,9,9,0,0,0-1.47,8.06L56.3,148c-6.82.23-13.83.48-20.42-1.57a24.62,24.62,0,0,1-8.34-4.34c-2.52-2.08-4-4.77-5.84-7.42-1.45-2.1-3.22-4.14-5.79-4.8a7.43,7.43,0,0,0-7,2.13c-4,4.07-2.28,10.47,1.9,13.68,6,4.62,13.89,2.75,20.56,1.08a1.26,1.26,0,0,0,.55-2.09L21.16,133.89l-.17-.17c-.46-.35,0,.37-.06,0A23.45,23.45,0,0,0,20,131,47,47,0,0,1,18,122.77a37.69,37.69,0,0,1,.9-14c.86-3.58,2-7.11,3.1-10.63a1.28,1.28,0,0,0-.58-1.42A23.06,23.06,0,0,1,8.13,79.76a37.16,37.16,0,0,1,2.24-20.39C14.84,48,25.14,41.28,36.26,37.42a55.46,55.46,0,0,1,14.4-3.11,48.34,48.34,0,0,1,22.53,4c10.49,4.56,19.77,12.21,23,23.59s-.66,24.07-8,32.92a10.51,10.51,0,0,1-1,1.07c-1.18,1.11.59,2.87,1.76,1.77a33.34,33.34,0,0,0,6.35-9.16,38.58,38.58,0,0,0,4.5-21.13A34.72,34.72,0,0,0,90.5,47a46.12,46.12,0,0,0-13.74-9.8,52.44,52.44,0,0,0-20.6-5.43,53.41,53.41,0,0,0-18.78,2.68C26.26,38.05,15.63,43.93,9.86,54.57c-7,13-7.24,32.09,5.61,41.55a26,26,0,0,0,4.71,2.73l-.57-1.41c-2.27,7.46-4.85,15-4.33,22.88a44.93,44.93,0,0,0,1.65,9.28c.32,1.16.69,2.3,1.09,3.43a7.39,7.39,0,0,0,1.07,2.33c1.52,1.77,3.33,3.35,5,5l6.07,6.11.55-2.09c-5.49,1.38-11.8,3.12-17.12.18-4.18-2.31-6.73-8.87-1.62-11.75,5.38-3,8.5,5.08,11,8.23,3.33,4.15,8.28,6.78,13.34,8.15,6.5,1.77,13.32,1.56,20,1.34A1.27,1.27,0,0,0,57.51,149,6.83,6.83,0,0,1,59,142.43a14.26,14.26,0,0,1,5.25-4.35L63,135.92a29,29,0,0,0-4.64,3.54,11.27,11.27,0,0,0-2.49,4.72c-.84,3.14-.46,6.95,2.8,8.49s7.31,1.21,10.66.76a31.23,31.23,0,0,0,10.48-3.32A30.42,30.42,0,0,0,93.66,134.8c2.82-6.86,3-14.71,1.71-21.93a49.9,49.9,0,0,0-6.25-16.76A1.25,1.25,0,0,0,87,97.37Z"/><ellipse class="cls-5" cx="41.95" cy="111.07" rx="10.32" ry="10.55"/><ellipse class="cls-6" cx="41.95" cy="111.08" rx="8.26" ry="8.44"/><path class="cls-1" d="M96.45,56l12.21-1.56c.41,0,.93,0,1.13.31s0,.75-.25,1.08l-5,7.43"/><path class="cls-2" d="M96.45,57.28l11.3-1.44c.39-.05.84-.05,1.23-.14h.16c-.19-.72-.37-1-.55-.67-.1.06-.2.31-.27.41l-1.62,2.41-3.24,4.81c-.91,1.34,1.26,2.59,2.15,1.26l3.83-5.68a9,9,0,0,0,1.63-2.77,1.88,1.88,0,0,0-1.6-2.23,10.44,10.44,0,0,0-2.89.25l-3.38.43-6.75.86A1.29,1.29,0,0,0,95.2,56c0,.61.58,1.34,1.25,1.25Z"/><path class="cls-3" d="M21.37,113.28a17.58,17.58,0,0,0,4.28,2,13.11,13.11,0,0,0,7.25.56,8.31,8.31,0,0,0,5.64-4.35,6.11,6.11,0,0,0-1.09-6.83,7.93,7.93,0,0,0-3.31-1.9,107.86,107.86,0,0,1-12.53-4.66"/><path class="cls-2" d="M20.74,114.36c5.17,3.31,13.38,4.88,17.78-.53a7.67,7.67,0,0,0,.8-8.8c-1.55-2.5-4.24-3.23-6.85-4.07C29,99.84,25.59,98.49,22.24,97a1.29,1.29,0,0,0-1.71.45A1.26,1.26,0,0,0,21,99.2c2.77,1.19,5.55,2.33,8.39,3.34,1.06.38,2.13.74,3.2,1.07a13.78,13.78,0,0,1,2.63,1,4.88,4.88,0,0,1,2.14,6.55,7.55,7.55,0,0,1-6.7,3.79A15.83,15.83,0,0,1,22,112.2c-1.35-.87-2.61,1.29-1.26,2.16Z"/><path class="cls-3" d="M57.58,119.42a19.15,19.15,0,0,1-7.5.12c-2.44-.61-4.75-2.48-5.08-5a6,6,0,0,1,2.44-5.31,10.76,10.76,0,0,1,5.7-2c2-.17,4.07,0,6.11,0a43.83,43.83,0,0,0,29.2-10.85"/><path class="cls-2" d="M57.25,118.21c-3.46.52-9.59,1.2-10.9-3.28a4.62,4.62,0,0,1,2-4.83,10.66,10.66,0,0,1,5.91-1.61c2.2-.07,4.4.13,6.6.06a44.49,44.49,0,0,0,5.88-.56A45.36,45.36,0,0,0,89.34,97.36c1.21-1.07-.56-2.83-1.77-1.77A42.71,42.71,0,0,1,62.76,106c-4.59.33-9.54-.76-13.91,1.07-3.77,1.59-6.51,5.88-4.38,9.83,2.63,4.9,8.8,4.46,13.44,3.76,1.59-.23.91-2.64-.66-2.41Z"/><path class="cls-7" d="M15.12,68.9a6.37,6.37,0,0,1,4.8.44c1.06.66,2.57,2.15,2.3,3.91s-1.95,3-3.65,3.5c-.53.16-3.27,1.24-5.71-.35-1.46-.94-3.1-3-2.52-4.82S13.49,69.22,15.12,68.9Z"/><path class="cls-7" d="M66.82,70.83a7.59,7.59,0,0,1,5.11-.22c.4.14,3.21,1.17,3.41,3.36a4.14,4.14,0,0,1-2.24,3.7,12.07,12.07,0,0,1-4.4,1.26c-2.62.39-4.13.4-5.3-.66a4.28,4.28,0,0,1-1-4.55C63.06,72,64.9,71.41,66.82,70.83Z"/><path class="cls-2" d="M35.24,69.34a13.9,13.9,0,0,1,7.43-.92,9.64,9.64,0,0,1,5.45,2.93,9,9,0,0,1,2.77,5.2c.38,4.78-7.19,6.56-10.71,6.62-3.35.06-7-1.06-8.74-4.15A6.71,6.71,0,0,1,31,72.7a7.86,7.86,0,0,1,4.27-3.36c1.46-.61.82-3-.67-2.41a11.54,11.54,0,0,0-5.27,3.71,8.44,8.44,0,0,0-.92,7.59,10.87,10.87,0,0,0,8.94,7.22,18.15,18.15,0,0,0,9-.94c2.49-.89,5-2.29,6.35-4.69,2.52-4.62-1.73-10.41-5.75-12.57a14.88,14.88,0,0,0-12.32-.32C33.11,67.53,33.75,70,35.24,69.34Z"/><path class="cls-2" d="M56.44,56.68c-.72-1.21,3.33-6.07,6.43-5.49.75.14,1.85.67,2,1.46,0,.25,0,.87-1.4,2C61,56.44,57,57.67,56.44,56.68Z"/><path class="cls-2" d="M57.52,56.05c-.09-.17.11.34.06.15s0,.37,0,.17v-.09c0-.21-.09.34,0,.13s.05-.19.08-.28a1.62,1.62,0,0,1,.06-.17s-.14.28,0,0a6.73,6.73,0,0,1,.44-.73l.25-.36c-.2.27,0,0,0,0l.18-.21c.24-.27.48-.52.74-.76l.38-.33.23-.19c-.23.18,0,0,.06,0a6.64,6.64,0,0,1,.92-.56c.06,0,.52-.24.21-.12.17-.06.34-.13.52-.18s.65-.11.27-.07a3,3,0,0,1,.43,0,1.41,1.41,0,0,0,.21,0c.16,0-.3-.07,0,0s.39.1.58.17c-.26-.1.07,0,.1.06l.29.17s-.16-.16,0,0l.07.07c.1.11.1.1,0,0l.05.09c-.05-.14-.06-.17,0-.08s0-.3,0-.15-.09,0,0-.09,0,.11,0,.13c-.06.2.18-.27,0-.09s-.28.4-.07.14a5.33,5.33,0,0,1-.84.81,12.9,12.9,0,0,1-2.3,1.34l-.33.14-.15.06-.76.28a11.72,11.72,0,0,1-1.2.31l-.23,0,.12,0-.17,0h-.45c-.25,0,.29.08.07,0a.47.47,0,0,0-.17,0c.14-.06.29.16.12,0l.14.11.12.15a1.28,1.28,0,0,0-1.72-.45,1.26,1.26,0,0,0-.44,1.71c1.09,1.68,3.69.84,5.18.26a15.5,15.5,0,0,0,3-1.54A5.84,5.84,0,0,0,66,53.51c.8-2.15-1.89-3.67-3.72-3.62a7.73,7.73,0,0,0-5,2.56c-1.11,1.11-2.82,3.18-1.91,4.86a1.25,1.25,0,1,0,2.16-1.26Z"/><path class="cls-2" d="M29.94,54.73c.5-1-1.15-2.83-2.41-3.73-.84-.6-2.56-1.84-4.17-1.08a3.09,3.09,0,0,0-1.65,3.57c.43,1,1.65,1.23,3.38,1.56C26.28,55.28,29.37,55.87,29.94,54.73Z"/><path class="cls-2" d="M31,55.36c.89-2-1-4-2.44-5.12-1.69-1.32-3.95-2.51-6-1.3-1.72,1-2.95,3.57-1.79,5.41,1,1.56,3.16,1.77,4.82,2s4.45.77,5.45-1a1.25,1.25,0,1,0-2.16-1.26c-.11.2.18-.18.07-.07S29,54,29,54s-.41.1-.05.05c-.11,0-.23.07-.35.09l-.16,0c.35-.06,0,0-.08,0-.31,0-.62,0-.92,0l-.4,0-.25,0c-.29,0,0,0-.06,0-.58-.1-1.15-.19-1.73-.31-.37-.07-.74-.14-1.1-.24l-.47-.14-.24-.09c.28.12,0,0-.05,0a1.19,1.19,0,0,0-.15-.09c-.23-.13.09.13,0,0a1,1,0,0,0-.14-.15s.13.24,0,.06c0,0-.14-.27-.05-.09s0-.1,0-.12,0-.22,0,0c0-.1,0-.2,0-.3,0-.29-.06.13,0,0a2,2,0,0,0,.06-.26c0-.08.17-.42.07-.21a4.53,4.53,0,0,1,.27-.48c.12-.2,0-.06,0,0l.22-.24.21-.19c.15-.12-.24.12.06,0l.18-.11c.28-.16-.09,0,.11,0a1.18,1.18,0,0,1,.31-.08h.29c.15,0,.17,0,0,0l.18,0a4.48,4.48,0,0,1,.52.16c.24.09.09,0,0,0l.27.13a8.77,8.77,0,0,1,.92.57l.41.29c-.18-.14,0,0,0,0l.26.23a8.17,8.17,0,0,1,.93.93l.15.18c-.14-.18.09.13.11.17s.2.33.3.5c-.18-.32.11.21.05.23s0-.31,0-.05c0,.1,0,.05,0-.14q0,.2.06-.09a1.28,1.28,0,0,0,.45,1.71A1.26,1.26,0,0,0,31,55.36Z"/><path class="cls-2" d="M60.61,64.29c0-.13.07-.27,0,0l0-.15a1.87,1.87,0,0,0,.07-.22c0,.17-.11.22,0,.1l.12-.2c0,.06-.18.2-.05.07l.16-.16.08-.08-.09.07a2.64,2.64,0,0,0,.33-.2c.24-.13-.27.08,0,0l.16,0c.14,0,.25,0,0,0a.86.86,0,0,0,.16,0,1,1,0,0,0,.24,0c-.19,0-.24,0-.14,0l.12,0,.22.07s-.28-.15-.08,0l.35.2c.23.15-.2-.19,0,0l.12.11.16.18c.17.17-.13-.22,0,0s.14.23.2.35-.08-.27,0,0a.88.88,0,0,1,.05.15s0,.24,0,.24,0-.33,0-.08c0,.06,0,.49,0,.52s0-.27,0,0a1.6,1.6,0,0,1-.05.21,1.66,1.66,0,0,1-.06.21c0,.1,0,.26,0,0a1.64,1.64,0,0,1-.21.39,1.45,1.45,0,0,1-.12.19c-.18.26.13-.13,0,.06l-.3.32-.13.11c-.2.19.23-.15,0,0a3.24,3.24,0,0,1-.35.21l-.18.1.11,0-.15.06a2.91,2.91,0,0,1-.39.12l-.16,0c-.27.07.3,0,0,0l-.4,0h-.16c-.14,0-.11,0,.09,0l-.15,0c-.13,0-.25-.07-.38-.1s.07,0,.08,0L59.62,67l-.13-.08c-.24-.14.19.19,0,0l-.11-.1-.09-.1c-.09-.1-.07-.07.06.08a2.49,2.49,0,0,0-.19-.3s0-.1-.06-.13l.07.17s0-.09,0-.13-.06-.23-.09-.35,0-.13,0,.12c0-.08,0-.17,0-.25v-.18s0-.27,0,0,0-.16.05-.22l.06-.17c.07-.23-.12.2,0,.07a1.14,1.14,0,0,0,.19-.34l-.1.14.09-.11.14-.13c.19-.17,0,0,0,0s.15-.1.17-.11l.18-.1s-.28.11,0,0,.37,0,.43-.1l-.17,0h.32c.28,0-.28-.07,0,0l.16,0,.07,0c.13,0,.1,0-.07,0a.54.54,0,0,0,.13.07c.13.08.16.19,0,0a1.29,1.29,0,0,0,.17.16l0,.06c.08.1.06.07-.06-.08,0,0,.09.14.08.13s.07.18.11.2-.09-.28,0-.09a1.16,1.16,0,0,0,.06.22c-.08-.08,0-.27,0-.11v.23c0,.23.08-.27,0,0l0,.07c0,.13,0,.1.05-.09a.75.75,0,0,0-.07.12c-.11.2-.1,0,0,0,0,0-.08.1-.09.1l0,0c-.1.09-.07.06.08-.06,0,0-.1.07-.12.07s-.19,0,0,0a1.18,1.18,0,0,0-.2.07c-.05,0-.27,0,0,0s0,0,0,0-.25,0,0,0,0,0,0,0-.26-.09,0,0,0,0,0,0c-.23-.12.2.19,0,0s.12.23,0,0c0,0-.1-.25,0,0s0,0,0-.07c-.08-.24,0,.23,0,.07s0,0,0,.07.08-.3,0-.07,0-.05,0,0-.17.21,0,.06l-.1.08.12-.07c0,.08-.25.09-.09,0s.1,0-.11,0h.14s-.31-.08-.11,0c-.19-.09-.22-.1-.11,0s.08,0,0,0l-.07,0c.08.09.06.06-.07-.1l.07.11-.07-.17a.73.73,0,0,0,0,.2c0-.23,0-.27,0-.14v.07l0-.2,0,.13c.08-.18.1-.23.05-.15s0,0,.09-.12c-.16.19.25-.16,0,0s.28-.1.05,0,.26,0,.09,0,.25.09,0,0l-.13,0c.19.09.23.1.12,0,.16.13.19.16.09.07s-.06-.13.06.08.07.19,0,.06a.42.42,0,0,1,0,.25.62.62,0,0,1-.2.35.68.68,0,0,1-.32.18l.06,0a.79.79,0,0,1-.58-.07,1,1,0,0,1-.41-1,.84.84,0,0,1,.6-.58l.21-.05-.41.06a3,3,0,0,0-2.1,1.52A1.26,1.26,0,0,0,58,67.9a3,3,0,0,0,2.39-5.41,1.25,1.25,0,0,0-1.26,2.16.57.57,0,0,1,.13.08c.11.07.08,0-.08-.07l.11.11c.09.09.07.07-.05-.09a1,1,0,0,0,.12.19l.06.13c-.07-.19-.09-.22,0-.09a1.28,1.28,0,0,0,.07.28l0-.18a.65.65,0,0,1,0,.14v.15q0-.31,0-.12a.57.57,0,0,1,0,.14l.06-.13a.85.85,0,0,0-.13.22c.12-.15.14-.18.05-.08a.94.94,0,0,1-.1.1c-.17.18.23-.12,0,0l-.12.07q-.18.09.09,0c-.07,0-.21.07-.28.09-.23.06.28,0,0,0h-.14c-.14,0-.1,0,.11,0a1.57,1.57,0,0,0-.29-.08l.75,1.84s.18-.3.07-.15.12-.09.13-.11-.2.13-.06.05l.11-.07s.2-.09,0,0,.06,0,.08,0l.12,0c.14,0-.14,0-.13,0a4,4,0,0,1,.51-.06,1.68,1.68,0,0,0,.93-.77A1.65,1.65,0,0,0,60.71,64a1.79,1.79,0,0,0-1.94,0A1.91,1.91,0,0,0,58,66.11a2.21,2.21,0,0,0,1.37,1.44A2.23,2.23,0,0,0,61,63.41a2.38,2.38,0,0,0-3.1,1.43,2.6,2.6,0,0,0,1.17,3A2.92,2.92,0,0,0,62,67.79a2.84,2.84,0,0,0,1.38-2.63,3.26,3.26,0,0,0-1.64-2.59,3.63,3.63,0,0,0-5.09,2.19,4.1,4.1,0,0,0,.23,2.78,3.64,3.64,0,0,0,2.13,1.89,4.39,4.39,0,0,0,2.82,0,5.06,5.06,0,0,0,2.48-1.81A4.22,4.22,0,0,0,64,62a3.64,3.64,0,0,0-3-.92,3.48,3.48,0,0,0-2.4,1.68,3.09,3.09,0,0,0-.41,1.54,1.25,1.25,0,0,0,2.5,0Z"/><path class="cls-2" d="M24.28,61.88a13.51,13.51,0,0,1,1.33.77c.15.1-.14-.13,0,0l.12.1c.1.08.18.17.27.25l.24.28c-.16-.2.06.09.1.17l.09.17s.08.18,0,0,0,0,0,0a1.52,1.52,0,0,1,.06.2c0,.06,0,.13,0,.19s0,.19,0,0v0a2.09,2.09,0,0,0,0,.25c0,.16,0-.1,0-.09a.79.79,0,0,1,0,.2l-.06.19s.1-.19,0-.08-.15.25-.16.25.18-.18.08-.1-.09.1-.14.14a.9.9,0,0,1-.11.1s.21-.12.09-.08-.16.1-.23.14.26-.07,0,0l-.31.09-.12,0c-.22.06.08,0,.09,0s-.27,0-.29,0H25c-.29,0,0,0,0,0a3,3,0,0,1-.58-.14c-.05,0-.35-.08-.16,0s0,0,0,0l-.2-.1-.29-.17s-.3-.23-.18-.13l-.17-.15-.26-.28s-.12-.14,0,0,0,0,0-.06a2.61,2.61,0,0,1-.17-.28.47.47,0,0,0-.07-.12c-.09-.15.07.2,0,0s-.08-.23-.11-.35a.49.49,0,0,0,0-.14s0,.32,0,.06c0-.11,0-.21,0-.32s0,.12,0,.11a.71.71,0,0,1,0-.17l0-.13,0-.09c0-.09,0-.06,0,.09a1.47,1.47,0,0,0,.14-.28l.08-.12c.1-.16,0,.06,0,0a1.69,1.69,0,0,0,.19-.19.5.5,0,0,1,.13-.12c-.11,0-.16.11,0,0a.41.41,0,0,1,.11-.07c.15-.09,0,0-.06,0a.81.81,0,0,0,.25-.08c.25-.07-.07,0-.07,0h.18s.18,0,0,0,0,0,.06,0c.2,0-.2-.12,0,0l.13.07c.14.07-.05.06-.07-.06s.14.12.17.15a.53.53,0,0,0,.1.12s-.15-.23-.06-.07a1.08,1.08,0,0,0,.14.26s-.06-.23-.05-.12a.38.38,0,0,0,0,.1.8.8,0,0,0,0,.15s0-.27,0-.16a.38.38,0,0,0,0,.15c0,.1.08-.29,0-.09a.45.45,0,0,0,0,.11c0,.1,0-.12.06-.14s-.08.13-.07.13l.08-.1c-.08.1-.14,0,0,0s.07-.06,0,0c.23-.12.15-.06.06,0a.69.69,0,0,1,.87.72v.22c0-.11,0-.11,0,0s0,0,0,0c-.23.32,0,0,0,0s.23-.08,0,0,0,0,.06,0-.21.05-.06,0l.17,0,.08,0-.11,0a.57.57,0,0,0,.13,0h.09l-.12,0a1,1,0,0,1,.33.09l-.11,0,.11.07-.12-.1.09.09c.09.14-.14-.22,0,0,0,0,.09.15,0,0s0,.06,0,.07,0-.32,0-.11a.71.71,0,0,0,0,.14s.08-.3,0-.11c0,0-.05.13,0,.14s.16-.25,0-.09.06-.07.08-.08-.1.1-.1.11.23-.18.08-.07.07,0,.1,0c-.16.06.05,0,.11,0-.2,0,.09,0,.12,0-.22,0,.2.09.06,0s-.07-.06-.09-.06.23.19.06,0,.09.1.08.11-.16-.26,0,0,0,.06,0,0c-.09-.21,0,.21,0,.09s0,.18,0,.17c-.08.18-.1.22-.06.14s0,0-.08.11l-2.09-.55c0-.08,0-.24,0-.08,0-.08.07-.22,0-.07s0-.06,0-.06l-.09.15c0-.06.17-.17,0-.06.06,0,.15-.13,0,0s0,0,.06,0c-.21.08.17,0,0,0h-.05c.09,0,.1,0,0,0s-.06,0,0,0,0,0,0,0,.12.14,0,0-.1-.17,0,0,.06.08,0,0,0,0,0,0,0,0,0-.05,0,.32,0,0h-2.5l0,.75a1.28,1.28,0,0,0,1.25,1.25,2.22,2.22,0,0,0,2-1.48,1.26,1.26,0,0,0-1.84-1.41A1.65,1.65,0,0,0,22.5,65a1.7,1.7,0,0,0,2.5,0,2.14,2.14,0,0,0,.22-2.52A3.11,3.11,0,0,0,23,61.3a1.27,1.27,0,0,0-1.58,1.2,5.51,5.51,0,0,0,4.12,5.59V65.68s-.33.12-.34.09.27,0,.12,0H25c-.15,0,.13,0,.12,0s-.35-.09-.38-.1c-.29-.1.13.08-.06,0s-.2-.11-.3-.18-.11-.11,0,0,0,0,0,0a.8.8,0,0,1-.13-.13l-.06-.06c-.06-.07,0,0,.06.08,0-.06-.14-.21-.16-.26s-.11-.2,0,0,0,0,0,0-.07-.26-.1-.39,0,0,0,0,0-.18,0-.2a1.33,1.33,0,0,1,0-.4s-.06.3,0,0l0-.15c0-.11.06-.23.1-.34l.07-.19c-.06.16,0,.08,0,0l.18-.31c0-.07.29-.35.1-.16.08-.08.15-.17.24-.25l.15-.14c.11-.12-.23.15,0,0a3,3,0,0,1,.3-.18s.22-.12.07-.05,0,0,0,0l.19-.06c.22-.07,0,0-.05,0a1.72,1.72,0,0,1,.39,0c0,.05-.25-.07-.05,0l.15,0s-.26-.15-.09,0l.09.06c.14,0-.15-.17-.07-.06l.08.08.11.11c-.1,0-.14-.21,0,0s.08.21.12.23c-.11-.07-.08-.23,0-.08s0,.1,0,.15,0,.14,0,.15,0-.26,0-.14A1.38,1.38,0,0,0,26,63s.07-.3,0-.11A.2.2,0,0,0,26,63c0,.06,0,.21,0,0s0-.07,0,0l-.09.13s.19-.19.05-.07l-.12.12c-.14.14.06-.06.07-.05s-.28.16-.28.16.3-.1.07,0l-.11,0-.16,0h0c.08-.06.11,0,0,0h-.21c-.13,0-.12-.07,0,0h.09l-.12,0-.28-.07c-.19,0,.09,0,.07,0l-.11-.06-.14-.08c-.11,0,.18.18,0,0s-.26-.25-.14-.13,0,0,0,0l-.09-.15a.45.45,0,0,1-.06-.12s.08.24,0,.06l-.09-.37c0-.14,0,.11,0,.11a1.09,1.09,0,0,0,0-.17,2.06,2.06,0,0,0,0-.35s0,.25,0,.12a1.36,1.36,0,0,0,0-.17s0-.09,0-.13c.07-.26-.09.15,0,0a3.07,3.07,0,0,1,.17-.31c.07-.12-.05.06-.05.07.12-.16,0,0,0,0a.69.69,0,0,1-.31.06c.12,0,.12,0-.14,0,0,0-.27-.12-.15-.06s-.23-.2-.09,0c0,0-.17-.26-.08-.08,0,0-.08-.3,0-.11a.2.2,0,0,0,0,.11c.06.12,0-.25,0-.11a.41.41,0,0,0,0,.11c0,.21,0-.1,0-.11s-.05.13,0,.14.13-.26,0,0l-.09.13c.12-.2.06-.07,0,0l-.26.31a6.92,6.92,0,0,0-.63.8,3.23,3.23,0,0,0,.46,3.92A3.29,3.29,0,0,0,27.2,67l-1.71-1.71c0,.07-.13.31,0,0,0,.07-.12.13-.16.17-.2.19,0,0,0,0s-.24.14-.24.14l.08,0-.13,0-.11,0c.17,0-.06,0-.11,0h0s-.18,0-.22,0,.21.11,0,0l-.23-.13.11.08-.13-.12s-.21-.21-.08-.07,0-.06-.06-.09l-.06-.12c0-.09,0,0,0,.09,0,0-.06-.22-.07-.25a1.25,1.25,0,1,0-2.41.66,3.23,3.23,0,0,0,2.52,2.43,3.3,3.3,0,0,0,3.45-1.6,1.25,1.25,0,0,0-1.71-1.71l-.19.13,0,0c-.13.06-.11.06,0,0a.71.71,0,0,1-.36.09c.29,0,.1,0,0,0a.64.64,0,0,1-.24,0s.29.07.06,0l-.14,0c-.08,0-.06,0,.08,0,0,0-.4-.31-.26-.15s-.06-.07-.07-.08.06,0,0,0l-.09-.15c-.16-.23,0,.17,0,0a1.29,1.29,0,0,0-.07-.21c-.08-.24,0,.24,0,0a1.09,1.09,0,0,0,0-.18c0-.26,0,.07,0,.06s0-.17,0-.21v0c.05-.13,0-.12,0,0,0-.08.16-.27.21-.34-.15.21,0,0,0,0s.13-.15.2-.23a3.34,3.34,0,0,0,1-2.08,2.31,2.31,0,0,0-1-2,1.94,1.94,0,0,0-2.48.45,3.79,3.79,0,0,0-.42,4.16A3.44,3.44,0,0,0,26,65.79a3.09,3.09,0,0,0,2.57-2.9,3.13,3.13,0,0,0-2.19-3.13,4,4,0,0,0-4.13,1.88A4.5,4.5,0,0,0,22,66.46a3.75,3.75,0,0,0,4.25,1.63,1.3,1.3,0,0,0,.92-1.21,1.28,1.28,0,0,0-.92-1.2l-.35-.1-.17-.06c.15.07.17.07,0,0a4.29,4.29,0,0,1-.55-.31L25,65.11l0,0a3.07,3.07,0,0,1-.26-.25,1.8,1.8,0,0,1-.19-.2l-.12-.13q.15.19,0,0a6,6,0,0,1-.33-.54l-.08-.16c-.06-.13-.05-.11,0,0A1.25,1.25,0,0,1,24,63.6L24,63.33a.85.85,0,0,1,0-.17c0-.14,0-.12,0,.06-.1-.12,0-.57,0-.72l-1.59,1.21.45.09.25.07c.14,0,.06,0,0,0s.25.17.12.06-.07-.05,0,0,.06.05-.06-.1c.09.14,0,0,0-.09.07.22,0-.22,0-.07s0,.22,0,0,0-.13,0-.06,0,0,.05-.14a.82.82,0,0,1,1-.28c.1.05.12.06.07,0s0,0,.05,0,.25.32.16.16a.81.81,0,0,1,.11.41,1.07,1.07,0,0,1-.44.77l-1.83-1.41a.55.55,0,0,1,.23-.33c-.17.13.1,0,.19,0l1.25,1.25,0-.75a1.25,1.25,0,0,0-2.5,0,2.45,2.45,0,1,0,4.84-.51,1.26,1.26,0,0,0-2.09-.55,2.09,2.09,0,0,0-.22,2.55,2.24,2.24,0,0,0,2.4,1.06,2.51,2.51,0,0,0,1-4.14,2.91,2.91,0,0,0-4.64.91A1.77,1.77,0,0,0,24.37,65a2.32,2.32,0,0,0,2.14-1.66,3.08,3.08,0,0,0-2-3.68c-1.74-.57-3.4.71-4,2.27a4.1,4.1,0,0,0,1.27,4.37,5.13,5.13,0,0,0,4,1.37,3.9,3.9,0,0,0,2.36-1.05A3.41,3.41,0,0,0,29.05,64c-.18-2.06-1.74-3.43-3.51-4.28a1.25,1.25,0,1,0-1.26,2.16Z"/><path class="cls-2" d="M46.23,74.31a2.29,2.29,0,0,0-1.75.67,2.58,2.58,0,0,0-.77,1.69,2.52,2.52,0,0,0,2,2.47A2.81,2.81,0,0,0,47.57,79a2.88,2.88,0,0,0,1.2-1.12,3.16,3.16,0,0,0,0-3.25,2.81,2.81,0,0,0-3.18-1.27,2.58,2.58,0,0,0-1.46,1.13,2.31,2.31,0,0,0-.21,1.8A2.45,2.45,0,0,0,45,77.65a2.15,2.15,0,0,0,2.65-3.3,2.11,2.11,0,0,0-2.4-.37,1.93,1.93,0,0,0-.94,2.15,1.8,1.8,0,0,0,2,1.37A1.84,1.84,0,0,0,48,75.7a1.26,1.26,0,0,0-1.25-1.25,1.28,1.28,0,0,0-1.25,1.25v.08l0-.33a.43.43,0,0,1,0,.11l.12-.3a.54.54,0,0,1-.07.13l.19-.25a.57.57,0,0,1-.11.11l.25-.2a.6.6,0,0,1-.13.09L46,75a.73.73,0,0,1-.2,0l.34,0A.43.43,0,0,1,46,75l.33,0-.11,0,.3.12-.14-.08.25.2-.08-.09.19.26-.08-.14.13.3a1.05,1.05,0,0,1,0-.19l0,.33a1.21,1.21,0,0,1,0-.19l0,.33a.83.83,0,0,1,0-.15l-.12.29a.7.7,0,0,1,.09-.17l-.19.26.08-.09-.25.2a.46.46,0,0,1,.15-.09l-.3.13a.66.66,0,0,1,.2-.06l-.33.05a.74.74,0,0,1,.21,0L46,76.21l.21.06-.3-.12a.72.72,0,0,1,.19.11l-.26-.2a.68.68,0,0,1,.12.12l-.19-.25a1,1,0,0,1,.1.17l-.13-.3a.83.83,0,0,1,0,.15l0-.33a.88.88,0,0,1,0,.23l0-.34a1,1,0,0,1-.06.23l.12-.3a1.16,1.16,0,0,1-.14.24l.19-.25a1.36,1.36,0,0,1-.17.17l.26-.2-.21.13.3-.13a.86.86,0,0,1-.23.06l.33,0a.67.67,0,0,1-.2,0l.33,0a1,1,0,0,1-.23-.06l.3.12a.88.88,0,0,1-.21-.12l.25.19a1.21,1.21,0,0,1-.19-.2l.19.25a1,1,0,0,1-.14-.25l.12.3a1.09,1.09,0,0,1-.08-.31l0,.33a1.41,1.41,0,0,1,0-.29l0,.34a.67.67,0,0,1,.07-.24l-.13.3a1.71,1.71,0,0,1,.13-.23l-.19.25a1,1,0,0,1,.21-.21l-.25.19a1.49,1.49,0,0,1,.3-.18l-.3.13a1.6,1.6,0,0,1,.39-.11l-.34,0a1.88,1.88,0,0,1,.41,0l-.34,0a1.29,1.29,0,0,1,.35.1l-.29-.13a1.94,1.94,0,0,1,.33.2l-.25-.2a1.77,1.77,0,0,1,.3.31l-.19-.25a1.69,1.69,0,0,1,.24.41l-.12-.29a2.42,2.42,0,0,1,.13.46l0-.33a2.26,2.26,0,0,1,0,.52l0-.34a2.63,2.63,0,0,1-.14.5l.12-.3a2,2,0,0,1-.23.4l.19-.25a1.64,1.64,0,0,1-.29.3l.25-.2a1.65,1.65,0,0,1-.36.22l.3-.13a1.24,1.24,0,0,1-.33.09l.33,0a1.55,1.55,0,0,1-.43,0l.34.05a1.55,1.55,0,0,1-.42-.12l.3.13a2.79,2.79,0,0,1-.33-.19l.26.19a1.31,1.31,0,0,1-.24-.23l.2.25a1.28,1.28,0,0,1-.15-.25l.12.3a1.23,1.23,0,0,1-.08-.29l0,.34a1.13,1.13,0,0,1,0-.26l0,.33a1.15,1.15,0,0,1,.1-.33l-.13.3a.92.92,0,0,1,.16-.27l-.2.25a1.36,1.36,0,0,1,.24-.24l-.25.19a1.35,1.35,0,0,1,.26-.15l-.3.13a.72.72,0,0,1,.25-.07l-.33,0a1.13,1.13,0,0,1,.26,0,1.22,1.22,0,0,0,.88-.36,1.24,1.24,0,0,0,0-1.77l-.25-.2a1.29,1.29,0,0,0-.63-.17Z"/><path class="cls-2" d="M34.84,73.5a3,3,0,0,0-2.73,2.18,2.76,2.76,0,0,0,1.22,3.12,3,3,0,0,0,3.14.07,3,3,0,0,0,1.25-3.17,2.74,2.74,0,0,0-2.56-2.16,2.73,2.73,0,0,0-2.8,1.81,2.64,2.64,0,0,0,1.25,3.05,2.42,2.42,0,0,0,3.23-3.24A2.11,2.11,0,0,0,35,74.08a2.6,2.6,0,0,0-1.73.66,2,2,0,0,0-.46.61,2.19,2.19,0,0,0-.17,1.38,1.23,1.23,0,0,0,.58.74,1.33,1.33,0,0,0,1,.13,5.05,5.05,0,0,0,2-.89,2.42,2.42,0,0,0,.9-1.95,2.16,2.16,0,0,0-1.42-2,2.41,2.41,0,0,0-2.52.85,2.81,2.81,0,0,0-.6,2.63,2.48,2.48,0,0,0,2,1.67,2.09,2.09,0,0,0,2.16-1.14A2.23,2.23,0,0,0,37,75.29,1.65,1.65,0,0,0,35.87,74a2.3,2.3,0,0,0-1.61.34,3.32,3.32,0,0,0-1,.94,3,3,0,0,0-.49,2.43,1.25,1.25,0,0,0,2.41-.66.77.77,0,0,1,0-.15l0,.33a2.67,2.67,0,0,1,0-.4l0,.33a1.55,1.55,0,0,1,.13-.48l-.13.3a2.13,2.13,0,0,1,.26-.44l-.2.25a3.06,3.06,0,0,1,.36-.36l-.25.2a1.9,1.9,0,0,1,.39-.23l-.29.13a1.69,1.69,0,0,1,.44-.12l-1.22-.32.09.09-.2-.25a.67.67,0,0,1,.09.14l-.13-.3a1.6,1.6,0,0,1,0,.21l0-.34a1.48,1.48,0,0,1,0,.21l0-.33a1.82,1.82,0,0,1-.07.25l.12-.3a1,1,0,0,1-.13.23l.2-.26-.16.16.26-.2a1.18,1.18,0,0,1-.19.11l.3-.13-.19,0,.33,0a1.13,1.13,0,0,1-.26,0l.34,0a1,1,0,0,1-.3-.08l.3.13a1.28,1.28,0,0,1-.27-.16l.26.2a1.14,1.14,0,0,1-.22-.22l.19.25a2.26,2.26,0,0,1-.16-.26l.13.3a1.25,1.25,0,0,1-.08-.32l0,.33a1.37,1.37,0,0,1,0-.35l0,.34a1.6,1.6,0,0,1,.11-.39l-.13.3a2.1,2.1,0,0,1,.24-.41l-.2.25a2.13,2.13,0,0,1,.34-.33l-.26.2a2,2,0,0,1,.32-.18l-.3.12.23-.06-.34,0a.88.88,0,0,1,.23,0l-.33-.05.2.05-.3-.12a.81.81,0,0,1,.18.1l-.26-.2a.93.93,0,0,1,.14.14l-.19-.25a1.51,1.51,0,0,1,.09.18l-.12-.3a.89.89,0,0,1,.07.28l0-.33a2,2,0,0,1,0,.35l0-.34a1.47,1.47,0,0,1-.08.3l.12-.3a1,1,0,0,1-.12.23l.19-.26a1.52,1.52,0,0,1-.31.31l.25-.2a2.87,2.87,0,0,1-.48.28l.29-.13a5.92,5.92,0,0,1-1,.3l1.53.87v0l0,.33a.6.6,0,0,1,0-.19l0,.33a.85.85,0,0,1,0-.17l-.12.29a.93.93,0,0,1,.11-.19l-.2.25a1.7,1.7,0,0,1,.19-.19l-.25.2a.92.92,0,0,1,.27-.16l-.3.12a1.39,1.39,0,0,1,.35-.09l-.33,0a1.22,1.22,0,0,1,.27,0l-.33,0,.26.07-.3-.12a1.4,1.4,0,0,1,.17.09l-.26-.19a1,1,0,0,1,.15.14l-.2-.25a.87.87,0,0,1,.11.18l-.12-.3a1.05,1.05,0,0,1,.06.24l0-.33a1.41,1.41,0,0,1,0,.29l0-.33a1.68,1.68,0,0,1-.09.32l.12-.29a1.22,1.22,0,0,1-.17.29l.19-.25a1.45,1.45,0,0,1-.21.22l.25-.2a1.64,1.64,0,0,1-.26.16l.3-.13a1,1,0,0,1-.25.07l.34,0h-.27l.33,0a1.11,1.11,0,0,1-.26-.07l.3.13a1.56,1.56,0,0,1-.28-.16l.26.2a2.13,2.13,0,0,1-.26-.26l.2.25a1.29,1.29,0,0,1-.19-.32l.13.3a1.4,1.4,0,0,1-.1-.35l0,.33a2.28,2.28,0,0,1,0-.37l0,.34a1.58,1.58,0,0,1,.09-.31l-.13.3a1,1,0,0,1,.15-.24l-.2.25a1.6,1.6,0,0,1,.26-.26l-.25.2A1.5,1.5,0,0,1,35,76l-.29.13a1.91,1.91,0,0,1,.41-.11l-.33,0a1.85,1.85,0,0,1,.47,0l-.33,0a1.91,1.91,0,0,1,.41.11L35,76a1.35,1.35,0,0,1,.33.19l-.25-.2a2.13,2.13,0,0,1,.26.26l-.2-.25a1.62,1.62,0,0,1,.21.36l-.13-.3a1.88,1.88,0,0,1,.12.45l0-.33a2.36,2.36,0,0,1,0,.46l0-.33a2.09,2.09,0,0,1-.13.49l.12-.3a1.65,1.65,0,0,1-.18.32l.19-.25a1.28,1.28,0,0,1-.26.26l.26-.19a3.37,3.37,0,0,1-.32.19l.3-.13a1.82,1.82,0,0,1-.4.11l.33,0a2.09,2.09,0,0,1-.5,0l.33,0a2.09,2.09,0,0,1-.49-.13l.29.12a1.54,1.54,0,0,1-.39-.23l.25.2a2.06,2.06,0,0,1-.3-.29l.2.26a2,2,0,0,1-.19-.31l.13.29a1.65,1.65,0,0,1-.11-.36l0,.33a1.27,1.27,0,0,1,0-.39l0,.34a1.93,1.93,0,0,1,.13-.47l-.13.3a2.22,2.22,0,0,1,.25-.42l-.2.25a3,3,0,0,1,.31-.31l-.25.19A1.79,1.79,0,0,1,35,76l-.3.12A1.56,1.56,0,0,1,35,76l-.33,0h.15a1.37,1.37,0,0,0,.88-.37,1.28,1.28,0,0,0,.37-.88,1.26,1.26,0,0,0-1.25-1.25Z"/><path class="cls-1" d="M63.5,39.82c-.85-2.72-4.08-12.94-6.24-16.48-.37-.61-1.21-1.94-2.14-1.85-.73.07-1.19,1-1.36,1.29-1.07,2-4.55,8-9.41,16.24"/><path class="cls-2" d="M64.7,39.49a115.28,115.28,0,0,0-5.47-15.1,11.2,11.2,0,0,0-2-3.21,2.58,2.58,0,0,0-4.18.4C51.86,23.26,51,25.22,50,27q-3.31,5.72-6.68,11.4a1.25,1.25,0,0,0,2.16,1.27c3-5.14,6.13-10.25,9-15.47l.45-.83a3.43,3.43,0,0,0,.35-.56c0-.1.28-.1,0-.1s.1.16.2.25a9,9,0,0,1,1.64,2.7A75.3,75.3,0,0,1,60,33.16q1.2,3.48,2.29,7c.48,1.53,2.89.88,2.41-.66Z"/><path class="cls-1" d="M56.32,35.27c6.32-4.21,10.91-7.26,12-8.08a1.84,1.84,0,0,1,1.27-.38,1.32,1.32,0,0,1,1,1.16,3.1,3.1,0,0,1-.22,1.64c-.58,1.24-1.85,5.88-3.68,13.18"/><path class="cls-2" d="M57,36.35c3.77-2.51,7.55-5,11.29-7.55.2-.14.92-.8,1.15-.76s-.24,1.37-.33,1.62a40.74,40.74,0,0,0-1.24,4c-.81,2.91-1.55,5.84-2.28,8.77a1.25,1.25,0,0,0,2.41.66c.72-2.86,1.44-5.73,2.23-8.57.25-.93.51-1.85.8-2.77.1-.32.2-.65.31-1,0-.12.09-.24.13-.36s.15-.4,0-.1a4,4,0,0,0,.06-3.59A2.58,2.58,0,0,0,67.83,26c-1.28.8-2.5,1.71-3.75,2.55l-8.39,5.6c-1.33.88-.08,3.05,1.26,2.16Z"/><path class="cls-1" d="M41.53,42.87c-.81-7.55-1.39-13-1.59-14.41a1.85,1.85,0,0,1,.25-1.3,1.33,1.33,0,0,1,1.5-.36,3.11,3.11,0,0,1,1.34.95c.84,1.09,4.36,4.36,10,9.36"/><path class="cls-2" d="M42.78,42.87c-.48-4.53-.93-9.06-1.48-13.59,0-.26-.07-.52-.11-.79s0-.45,0-.15c0-.17.07-.46-.09-.37.39-.23,1.07.68,1.33,1a39.89,39.89,0,0,0,3,3C47.63,34,49.88,36,52.14,38c1.2,1.07,3-.7,1.77-1.77-2.21-2-4.41-3.93-6.58-5.94A40.6,40.6,0,0,1,44,27a4,4,0,0,0-2.76-1.54,2.52,2.52,0,0,0-2.61,2.72,5.56,5.56,0,0,0,.08.7c0-.11,0-.22,0,.05l.12,1c.11.94.22,1.87.32,2.81.37,3.38.73,6.75,1.09,10.13a1.29,1.29,0,0,0,1.25,1.25,1.25,1.25,0,0,0,1.25-1.25Z"/><path class="cls-1" d="M60.6,40.48c6.32-4.21,10.91-7.27,12-8.08A1.84,1.84,0,0,1,73.91,32a1.32,1.32,0,0,1,1,1.16,3.1,3.1,0,0,1-.22,1.64C74.12,36.06,72.85,40.7,71,48"/><path class="cls-2" d="M61.23,41.56c3.76-2.51,7.55-5,11.28-7.55.21-.15.93-.8,1.15-.76s-.23,1.37-.32,1.62a40.74,40.74,0,0,0-1.24,4c-.81,2.91-1.55,5.84-2.28,8.77a1.25,1.25,0,0,0,2.41.66c.72-2.86,1.44-5.73,2.23-8.58.25-.92.51-1.84.8-2.76.1-.32.2-.65.31-1l.13-.36c0-.15.15-.4,0-.1A4,4,0,0,0,75.79,32a2.58,2.58,0,0,0-3.68-.72c-1.28.8-2.5,1.71-3.75,2.55L60,39.4c-1.34.88-.09,3.05,1.26,2.16Z"/></svg>